<mxfile host="app.diagrams.net" agent="Mozilla/5.0 (Windows NT 10.0; Win64; x64) AppleWebKit/537.36 (KHTML, like Gecko) Chrome/131.0.0.0 Safari/537.36" version="24.9.3">
  <diagram name="Page-1" id="w5PnQpB6T7lnH5jUmwBX">
    <mxGraphModel dx="704" dy="477" grid="1" gridSize="10" guides="1" tooltips="1" connect="1" arrows="1" fold="1" page="1" pageScale="1" pageWidth="850" pageHeight="1100" math="0" shadow="0">
      <root>
        <mxCell id="0" />
        <mxCell id="1" parent="0" />
        <mxCell id="LzxnK2zoxnliuTC1NMBc-4" value="Customer" style="swimlane;fontStyle=1;align=center;verticalAlign=top;childLayout=stackLayout;horizontal=1;startSize=26;horizontalStack=0;resizeParent=1;resizeParentMax=0;resizeLast=0;collapsible=1;marginBottom=0;whiteSpace=wrap;html=1;" vertex="1" parent="1">
          <mxGeometry x="260" y="90" width="160" height="150" as="geometry" />
        </mxCell>
        <mxCell id="LzxnK2zoxnliuTC1NMBc-5" value="&lt;div&gt;+ customerID: int&lt;/div&gt;&lt;div&gt;+ name: string&lt;/div&gt;&lt;div&gt;+ email: string&lt;/div&gt;&lt;div&gt;+ address: string&lt;/div&gt;&lt;div&gt;&lt;br&gt;&lt;/div&gt;" style="text;strokeColor=none;fillColor=none;align=left;verticalAlign=top;spacingLeft=4;spacingRight=4;overflow=hidden;rotatable=0;points=[[0,0.5],[1,0.5]];portConstraint=eastwest;whiteSpace=wrap;html=1;" vertex="1" parent="LzxnK2zoxnliuTC1NMBc-4">
          <mxGeometry y="26" width="160" height="64" as="geometry" />
        </mxCell>
        <mxCell id="LzxnK2zoxnliuTC1NMBc-6" value="" style="line;strokeWidth=1;fillColor=none;align=left;verticalAlign=middle;spacingTop=-1;spacingLeft=3;spacingRight=3;rotatable=0;labelPosition=right;points=[];portConstraint=eastwest;strokeColor=inherit;" vertex="1" parent="LzxnK2zoxnliuTC1NMBc-4">
          <mxGeometry y="90" width="160" height="8" as="geometry" />
        </mxCell>
        <mxCell id="LzxnK2zoxnliuTC1NMBc-7" value="&lt;div&gt;+ login(): boolean&lt;/div&gt;&lt;div&gt;+ logout(): void&lt;/div&gt;&lt;div&gt;+ updateProfile(): void&lt;/div&gt;&lt;div&gt;&lt;br&gt;&lt;/div&gt;" style="text;strokeColor=none;fillColor=none;align=left;verticalAlign=top;spacingLeft=4;spacingRight=4;overflow=hidden;rotatable=0;points=[[0,0.5],[1,0.5]];portConstraint=eastwest;whiteSpace=wrap;html=1;" vertex="1" parent="LzxnK2zoxnliuTC1NMBc-4">
          <mxGeometry y="98" width="160" height="52" as="geometry" />
        </mxCell>
        <mxCell id="LzxnK2zoxnliuTC1NMBc-8" value="Product" style="swimlane;fontStyle=1;align=center;verticalAlign=top;childLayout=stackLayout;horizontal=1;startSize=26;horizontalStack=0;resizeParent=1;resizeParentMax=0;resizeLast=0;collapsible=1;marginBottom=0;whiteSpace=wrap;html=1;" vertex="1" parent="1">
          <mxGeometry x="230" y="350" width="160" height="168" as="geometry" />
        </mxCell>
        <mxCell id="LzxnK2zoxnliuTC1NMBc-9" value="&lt;div&gt;&lt;div&gt;+ productID: int&lt;/div&gt;&lt;div&gt;+ name: string&lt;/div&gt;&lt;div&gt;+ price: float&lt;/div&gt;&lt;div&gt;+ stockQuantity: int&lt;/div&gt;&lt;div&gt;+ description: string&lt;/div&gt;&lt;/div&gt;&lt;div&gt;&lt;br&gt;&lt;/div&gt;" style="text;strokeColor=none;fillColor=none;align=left;verticalAlign=top;spacingLeft=4;spacingRight=4;overflow=hidden;rotatable=0;points=[[0,0.5],[1,0.5]];portConstraint=eastwest;whiteSpace=wrap;html=1;" vertex="1" parent="LzxnK2zoxnliuTC1NMBc-8">
          <mxGeometry y="26" width="160" height="64" as="geometry" />
        </mxCell>
        <mxCell id="LzxnK2zoxnliuTC1NMBc-10" value="" style="line;strokeWidth=1;fillColor=none;align=left;verticalAlign=middle;spacingTop=-1;spacingLeft=3;spacingRight=3;rotatable=0;labelPosition=right;points=[];portConstraint=eastwest;strokeColor=inherit;" vertex="1" parent="LzxnK2zoxnliuTC1NMBc-8">
          <mxGeometry y="90" width="160" height="8" as="geometry" />
        </mxCell>
        <mxCell id="LzxnK2zoxnliuTC1NMBc-11" value="&lt;div&gt;&lt;div&gt;+ updateStock(): void&lt;/div&gt;&lt;div&gt;+ applyDiscount(): void&lt;/div&gt;&lt;div&gt;+ getPrice(): float&lt;/div&gt;&lt;div&gt;+ isAvailable(): boolean&lt;/div&gt;&lt;/div&gt;&lt;div&gt;&lt;br&gt;&lt;/div&gt;" style="text;strokeColor=none;fillColor=none;align=left;verticalAlign=top;spacingLeft=4;spacingRight=4;overflow=hidden;rotatable=0;points=[[0,0.5],[1,0.5]];portConstraint=eastwest;whiteSpace=wrap;html=1;" vertex="1" parent="LzxnK2zoxnliuTC1NMBc-8">
          <mxGeometry y="98" width="160" height="70" as="geometry" />
        </mxCell>
        <mxCell id="LzxnK2zoxnliuTC1NMBc-12" value="Order" style="swimlane;fontStyle=1;align=center;verticalAlign=top;childLayout=stackLayout;horizontal=1;startSize=26;horizontalStack=0;resizeParent=1;resizeParentMax=0;resizeLast=0;collapsible=1;marginBottom=0;whiteSpace=wrap;html=1;" vertex="1" parent="1">
          <mxGeometry x="510" y="80" width="160" height="200" as="geometry" />
        </mxCell>
        <mxCell id="LzxnK2zoxnliuTC1NMBc-13" value="&lt;div&gt;&lt;div&gt;+ orderID: int&lt;/div&gt;&lt;div&gt;+ customer: Customer&lt;/div&gt;&lt;div&gt;+ productList: List&amp;lt;Product&amp;gt;&lt;/div&gt;&lt;div&gt;+ totalAmount: float&lt;/div&gt;&lt;/div&gt;&lt;div&gt;&lt;br&gt;&lt;/div&gt;" style="text;strokeColor=none;fillColor=none;align=left;verticalAlign=top;spacingLeft=4;spacingRight=4;overflow=hidden;rotatable=0;points=[[0,0.5],[1,0.5]];portConstraint=eastwest;whiteSpace=wrap;html=1;" vertex="1" parent="LzxnK2zoxnliuTC1NMBc-12">
          <mxGeometry y="26" width="160" height="64" as="geometry" />
        </mxCell>
        <mxCell id="LzxnK2zoxnliuTC1NMBc-14" value="" style="line;strokeWidth=1;fillColor=none;align=left;verticalAlign=middle;spacingTop=-1;spacingLeft=3;spacingRight=3;rotatable=0;labelPosition=right;points=[];portConstraint=eastwest;strokeColor=inherit;" vertex="1" parent="LzxnK2zoxnliuTC1NMBc-12">
          <mxGeometry y="90" width="160" height="8" as="geometry" />
        </mxCell>
        <mxCell id="LzxnK2zoxnliuTC1NMBc-15" value="&lt;div&gt;&lt;div&gt;+ calculateTotal(): float&lt;/div&gt;&lt;div&gt;+ addProduct(product:&lt;/div&gt;&lt;div&gt;&amp;nbsp; &amp;nbsp;Product): void&lt;/div&gt;&lt;div&gt;+ removeProduct(product:&lt;/div&gt;&lt;div&gt;&amp;nbsp; &amp;nbsp;Product): void&lt;/div&gt;&lt;div&gt;+ generateInvoice(): void&lt;/div&gt;&lt;/div&gt;&lt;div&gt;&lt;br&gt;&lt;/div&gt;" style="text;strokeColor=none;fillColor=none;align=left;verticalAlign=top;spacingLeft=4;spacingRight=4;overflow=hidden;rotatable=0;points=[[0,0.5],[1,0.5]];portConstraint=eastwest;whiteSpace=wrap;html=1;" vertex="1" parent="LzxnK2zoxnliuTC1NMBc-12">
          <mxGeometry y="98" width="160" height="102" as="geometry" />
        </mxCell>
        <mxCell id="LzxnK2zoxnliuTC1NMBc-24" style="edgeStyle=orthogonalEdgeStyle;rounded=0;orthogonalLoop=1;jettySize=auto;html=1;exitX=0.5;exitY=0;exitDx=0;exitDy=0;startArrow=ERone;startFill=0;endArrow=ERone;endFill=0;" edge="1" parent="1" source="LzxnK2zoxnliuTC1NMBc-16">
          <mxGeometry relative="1" as="geometry">
            <mxPoint x="620" y="280" as="targetPoint" />
            <mxPoint x="620.0666666666666" y="350" as="sourcePoint" />
            <Array as="points" />
          </mxGeometry>
        </mxCell>
        <mxCell id="LzxnK2zoxnliuTC1NMBc-16" value="Payement" style="swimlane;fontStyle=1;align=center;verticalAlign=top;childLayout=stackLayout;horizontal=1;startSize=26;horizontalStack=0;resizeParent=1;resizeParentMax=0;resizeLast=0;collapsible=1;marginBottom=0;whiteSpace=wrap;html=1;" vertex="1" parent="1">
          <mxGeometry x="540" y="340" width="160" height="230" as="geometry" />
        </mxCell>
        <mxCell id="LzxnK2zoxnliuTC1NMBc-17" value="&lt;div&gt;&lt;div&gt;&lt;div&gt;+ paymentID: int&lt;/div&gt;&lt;div&gt;+ order: Order&lt;/div&gt;&lt;div&gt;+ paymentMethod: string&lt;/div&gt;&lt;div&gt;+ amount: float&lt;/div&gt;&lt;div&gt;+ status: string&lt;/div&gt;&lt;/div&gt;&lt;/div&gt;&lt;div&gt;&lt;br&gt;&lt;/div&gt;" style="text;strokeColor=none;fillColor=none;align=left;verticalAlign=top;spacingLeft=4;spacingRight=4;overflow=hidden;rotatable=0;points=[[0,0.5],[1,0.5]];portConstraint=eastwest;whiteSpace=wrap;html=1;" vertex="1" parent="LzxnK2zoxnliuTC1NMBc-16">
          <mxGeometry y="26" width="160" height="84" as="geometry" />
        </mxCell>
        <mxCell id="LzxnK2zoxnliuTC1NMBc-18" value="" style="line;strokeWidth=1;fillColor=none;align=left;verticalAlign=middle;spacingTop=-1;spacingLeft=3;spacingRight=3;rotatable=0;labelPosition=right;points=[];portConstraint=eastwest;strokeColor=inherit;" vertex="1" parent="LzxnK2zoxnliuTC1NMBc-16">
          <mxGeometry y="110" width="160" height="8" as="geometry" />
        </mxCell>
        <mxCell id="LzxnK2zoxnliuTC1NMBc-19" value="&lt;div&gt;&lt;div&gt;&lt;div&gt;+ processPayment(): boolean&lt;/div&gt;&lt;div&gt;+ refund(): void&lt;/div&gt;&lt;div&gt;+ validatePayment(): boolean&lt;/div&gt;&lt;div&gt;+ getPaymentStatus(): string&lt;/div&gt;&lt;/div&gt;&lt;/div&gt;&lt;div&gt;&lt;br&gt;&lt;/div&gt;" style="text;strokeColor=none;fillColor=none;align=left;verticalAlign=top;spacingLeft=4;spacingRight=4;overflow=hidden;rotatable=0;points=[[0,0.5],[1,0.5]];portConstraint=eastwest;whiteSpace=wrap;html=1;" vertex="1" parent="LzxnK2zoxnliuTC1NMBc-16">
          <mxGeometry y="118" width="160" height="112" as="geometry" />
        </mxCell>
        <mxCell id="LzxnK2zoxnliuTC1NMBc-20" style="edgeStyle=orthogonalEdgeStyle;rounded=0;orthogonalLoop=1;jettySize=auto;html=1;entryX=-0.004;entryY=0.915;entryDx=0;entryDy=0;entryPerimeter=0;endArrow=ERmany;endFill=0;startArrow=ERone;startFill=0;" edge="1" parent="1" target="LzxnK2zoxnliuTC1NMBc-13">
          <mxGeometry relative="1" as="geometry">
            <mxPoint x="420" y="165" as="sourcePoint" />
          </mxGeometry>
        </mxCell>
        <mxCell id="LzxnK2zoxnliuTC1NMBc-21" style="edgeStyle=orthogonalEdgeStyle;rounded=0;orthogonalLoop=1;jettySize=auto;html=1;endArrow=ERmany;endFill=0;startArrow=ERmany;startFill=0;" edge="1" parent="1" source="LzxnK2zoxnliuTC1NMBc-15" target="LzxnK2zoxnliuTC1NMBc-8">
          <mxGeometry relative="1" as="geometry">
            <Array as="points">
              <mxPoint x="310" y="270" />
            </Array>
          </mxGeometry>
        </mxCell>
        <mxCell id="LzxnK2zoxnliuTC1NMBc-25" value="&lt;strong style=&quot;color: rgb(32, 33, 34); font-family: Lato, &amp;quot;Lucida Sans Unicode&amp;quot;, &amp;quot;Lucida Grande&amp;quot;, sans-serif; font-size: 19px; letter-spacing: 0.2px; text-align: left; background-color: rgb(255, 255, 255);&quot;&gt;Class Diagram&lt;/strong&gt;" style="text;html=1;align=center;verticalAlign=middle;whiteSpace=wrap;rounded=0;" vertex="1" parent="1">
          <mxGeometry x="300" y="550" width="170" height="30" as="geometry" />
        </mxCell>
      </root>
    </mxGraphModel>
  </diagram>
</mxfile>
